<?xml version="1.0" encoding="UTF-8"?>
<svg width="100px" height="100px" viewBox="0 0 100 100" version="1.1" xmlns="http://www.w3.org/2000/svg" xmlns:xlink="http://www.w3.org/1999/xlink">
    <title>API Testing Icon</title>
    <defs>
        <linearGradient x1="0%" y1="0%" x2="100%" y2="100%" id="linearGradient">
            <stop stop-color="#FF7200" offset="0%"></stop>
            <stop stop-color="#FF9D45" offset="100%"></stop>
        </linearGradient>
    </defs>
    <g stroke="none" stroke-width="1" fill="none" fill-rule="evenodd">
        <circle fill="url(#linearGradient)" cx="50" cy="50" r="50"></circle>
        <g transform="translate(20, 20)" fill="#FFFFFF" fill-rule="nonzero">
            <!-- Code Brackets -->
            <path d="M15,10 L5,30 C4.8,30.5 5,31.1 5.5,31.3 C5.6,31.4 5.8,31.4 6,31.4 C6.4,31.4 6.8,31.1 6.9,30.7 L16.9,10.7 C17.1,10.2 16.9,9.6 16.4,9.4 C15.9,9.2 15.3,9.4 15,10 Z"></path>
            <path d="M0,20 L10,30 C10.4,30.4 11,30.4 11.4,30 C11.8,29.6 11.8,29 11.4,28.6 L2.8,20 L11.4,11.4 C11.8,11 11.8,10.4 11.4,10 C11,9.6 10.4,9.6 10,10 L0,20 Z"></path>
            <path d="M48.6,10 C48.2,9.6 47.6,9.6 47.2,10 C46.8,10.4 46.8,11 47.2,11.4 L55.8,20 L47.2,28.6 C46.8,29 46.8,29.6 47.2,30 C47.4,30.2 47.6,30.3 47.9,30.3 C48.2,30.3 48.4,30.2 48.6,30 L58.6,20 L48.6,10 Z"></path>
            
            <!-- API Text -->
            <path d="M25,40 L35,40 C35.6,40 36,39.6 36,39 C36,38.4 35.6,38 35,38 L25,38 C24.4,38 24,38.4 24,39 C24,39.6 24.4,40 25,40 Z"></path>
            <path d="M25,45 L35,45 C35.6,45 36,44.6 36,44 C36,43.4 35.6,43 35,43 L25,43 C24.4,43 24,43.4 24,44 C24,44.6 24.4,45 25,45 Z"></path>
            <path d="M25,50 L35,50 C35.6,50 36,49.6 36,49 C36,48.4 35.6,48 35,48 L25,48 C24.4,48 24,48.4 24,49 C24,49.6 24.4,50 25,50 Z"></path>
            
            <!-- Gear Icon -->
            <path d="M30,25 C27.2,25 25,27.2 25,30 C25,32.8 27.2,35 30,35 C32.8,35 35,32.8 35,30 C35,27.2 32.8,25 30,25 Z M30,33 C28.3,33 27,31.7 27,30 C27,28.3 28.3,27 30,27 C31.7,27 33,28.3 33,30 C33,31.7 31.7,33 30,33 Z"></path>
            <path d="M39.9,28.2 L38.2,27.5 C38.1,27.1 37.9,26.6 37.7,26.2 L38.4,24.5 C38.5,24.2 38.4,23.9 38.2,23.7 L36.3,21.8 C36.1,21.6 35.8,21.5 35.5,21.6 L33.8,22.3 C33.4,22.1 32.9,21.9 32.5,21.8 L31.8,20.1 C31.7,19.8 31.4,19.6 31.1,19.6 L28.3,19.6 C28,19.6 27.7,19.8 27.6,20.1 L26.9,21.8 C26.5,21.9 26,22.1 25.6,22.3 L23.9,21.6 C23.6,21.5 23.3,21.6 23.1,21.8 L21.2,23.7 C21,23.9 20.9,24.2 21,24.5 L21.7,26.2 C21.5,26.6 21.3,27.1 21.2,27.5 L19.5,28.2 C19.2,28.3 19,28.6 19,28.9 L19,31.7 C19,32 19.2,32.3 19.5,32.4 L21.2,33.1 C21.3,33.5 21.5,34 21.7,34.4 L21,36.1 C20.9,36.4 21,36.7 21.2,36.9 L23.1,38.8 C23.3,39 23.6,39.1 23.9,39 L25.6,38.3 C26,38.5 26.5,38.7 26.9,38.8 L27.6,40.5 C27.7,40.8 28,41 28.3,41 L31.1,41 C31.4,41 31.7,40.8 31.8,40.5 L32.5,38.8 C32.9,38.7 33.4,38.5 33.8,38.3 L35.5,39 C35.8,39.1 36.1,39 36.3,38.8 L38.2,36.9 C38.4,36.7 38.5,36.4 38.4,36.1 L37.7,34.4 C37.9,34 38.1,33.5 38.2,33.1 L39.9,32.4 C40.2,32.3 40.4,32 40.4,31.7 L40.4,28.9 C40.4,28.6 40.2,28.3 39.9,28.2 Z M38.4,31.1 L36.9,31.7 C36.7,31.8 36.5,32 36.4,32.2 C36.2,32.8 35.9,33.3 35.5,33.8 C35.4,34 35.3,34.3 35.4,34.5 L36,36 L35,37 L33.5,36.4 C33.3,36.3 33,36.4 32.8,36.5 C32.3,36.9 31.8,37.2 31.2,37.4 C31,37.5 30.8,37.7 30.7,37.9 L30.1,39.4 L29.3,39.4 L28.7,37.9 C28.6,37.7 28.4,37.5 28.2,37.4 C27.6,37.2 27.1,36.9 26.6,36.5 C26.4,36.4 26.1,36.3 25.9,36.4 L24.4,37 L23.4,36 L24,34.5 C24.1,34.3 24,34 23.9,33.8 C23.5,33.3 23.2,32.8 23,32.2 C22.9,32 22.7,31.8 22.5,31.7 L21,31.1 L21,30.3 L22.5,29.7 C22.7,29.6 22.9,29.4 23,29.2 C23.2,28.6 23.5,28.1 23.9,27.6 C24,27.4 24.1,27.1 24,26.9 L23.4,25.4 L24.4,24.4 L25.9,25 C26.1,25.1 26.4,25 26.6,24.9 C27.1,24.5 27.6,24.2 28.2,24 C28.4,23.9 28.6,23.7 28.7,23.5 L29.3,22 L30.1,22 L30.7,23.5 C30.8,23.7 31,23.9 31.2,24 C31.8,24.2 32.3,24.5 32.8,24.9 C33,25 33.3,25.1 33.5,25 L35,24.4 L36,25.4 L35.4,26.9 C35.3,27.1 35.4,27.4 35.5,27.6 C35.9,28.1 36.2,28.6 36.4,29.2 C36.5,29.4 36.7,29.6 36.9,29.7 L38.4,30.3 L38.4,31.1 Z"></path>
        </g>
    </g>
</svg>
